<svg width="2450" height="2437" viewBox="0 0 2450 2437" fill="none" xmlns="http://www.w3.org/2000/svg">
<path d="M208 1260H2316" stroke="black" stroke-width="40" stroke-linecap="round" stroke-linejoin="round"/>
<path d="M448 1260V2174.5L594 2314H1954.5" stroke="black" stroke-width="40"/>
<path d="M2091.5 2174.5H2111.5C2111.5 2179.96 2109.27 2185.19 2105.32 2188.96L2091.5 2174.5ZM1945.5 2314L1959.32 2328.46L1953.52 2334H1945.5V2314ZM598 2334H578V2294H598V2334ZM2111.5 1260V2174.5H2071.5V1260H2111.5ZM2105.32 2188.96L1959.32 2328.46L1931.68 2299.54L2077.68 2160.04L2105.32 2188.96ZM1945.5 2334H598V2294H1945.5V2334Z" fill="black"/>
<path d="M445 1521H175V1554H445" stroke="black" stroke-width="35" stroke-linejoin="bevel"/>
<path d="M2092 1521H2362V1554H2092" stroke="black" stroke-width="35" stroke-linejoin="bevel"/>
<path d="M607.5 1247C618.788 1168.6 662.955 983.721 743 932" stroke="black" stroke-width="35" stroke-linejoin="bevel"/>
<path d="M736.5 948C729.334 855.833 718.355 700.916 736.5 689C736.5 689 782.5 634 961.5 779.5" stroke="black" stroke-width="35" stroke-linejoin="round"/>
<path d="M1420.5 903.5C1477.5 917.5 1593.71 953.331 1658.19 1031.65M1658.19 1031.65C1658.97 1032.59 1659.74 1033.54 1660.5 1034.5L1658.19 1031.65Z" stroke="black" stroke-width="20" stroke-linejoin="bevel"/>
<path d="M887.5 1092C896.5 1047.5 937.981 985.389 1065 933.5C1182.5 885.5 1280.5 863 1426 905.5" stroke="black" stroke-width="20" stroke-linejoin="bevel"/>
<path d="M891 1079.5C878.5 1106.5 891 1152.3 941 1159.5C1003.5 1168.5 1083 1129 1125.5 1105.5C1168 1082 1236 1037.5 1342.5 1037.5" stroke="black" stroke-width="20" stroke-linejoin="bevel"/>
<path d="M1337.5 1037.5C1373 1035.5 1440 1037.5 1527.5 1110" stroke="black" stroke-width="20" stroke-linejoin="bevel"/>
<path d="M1521 1106.5C1547.17 1118.5 1577.5 1143.98 1643.5 1125.5C1692 1111.92 1682.5 1065 1659 1032.5" stroke="black" stroke-width="20" stroke-linejoin="bevel"/>
<path d="M946.5 779.5C1041.67 739.833 1319.7 684.5 1550.5 740.5" stroke="black" stroke-width="35" stroke-linejoin="round"/>
<path d="M1533.5 742C1582 699.5 1688 638.6 1710 675C1737.5 720.5 1741.5 797 1769 906.5" stroke="black" stroke-width="35" stroke-linejoin="bevel"/>
<path d="M1763 894.5C1811.67 949.333 1916.6 1140 1919 1254" stroke="black" stroke-width="35" stroke-linejoin="bevel"/>
<path d="M555.742 1020.71C553.375 1014.23 546.198 1010.89 539.713 1013.26C533.228 1015.63 529.891 1022.8 532.258 1029.29L555.742 1020.71ZM532.258 1029.29C558.048 1099.93 668.303 1241.63 904.696 1266.43L907.304 1241.57C680.519 1217.78 578.294 1082.49 555.742 1020.71L532.258 1029.29Z" fill="black"/>
<path d="M1901.95 539.933C1901.36 533.054 1895.31 527.956 1888.43 528.545C1881.55 529.135 1876.46 535.189 1877.05 542.067L1901.95 539.933ZM99.9996 1053.5L88.0524 1057.18L99.9996 1053.5ZM944.5 352.499L949.077 364.131L944.5 352.499ZM1647.5 190.999L1646.31 178.556L1647.5 190.999ZM2024.5 276L2015.42 284.597L2024.5 276ZM2013 541L2024.3 546.349L2013 541ZM1877.05 542.067C1885.08 635.836 1899.49 782.448 1886.7 920.78C1873.83 1059.98 1833.83 1185.74 1737.59 1243.27L1750.41 1264.73C1857.88 1200.49 1898.64 1063.21 1911.59 923.082C1924.63 782.09 1909.94 633.09 1901.95 539.933L1877.05 542.067ZM625.562 1121.08C534.46 1131.63 414.905 1147.21 312.572 1142.51C261.405 1140.17 215.611 1132.78 180.293 1117.78C145.224 1102.88 121.54 1081 111.947 1049.82L88.0524 1057.18C100.459 1097.5 130.983 1123.99 170.519 1140.79C209.805 1157.47 259.011 1165.08 311.427 1167.49C416.261 1172.29 538.206 1156.37 628.438 1145.92L625.562 1121.08ZM111.947 1049.82C105.255 1028.08 110.64 1001.09 126.253 970.155C141.73 939.491 166.271 906.934 194.501 875.235C250.926 811.879 320.2 754.007 355.579 724.038L339.42 704.962C304.299 734.713 233.629 793.71 175.832 858.608C146.951 891.037 120.812 925.453 103.935 958.89C87.1936 992.057 78.5498 1026.29 88.0524 1057.18L111.947 1049.82ZM355.579 724.038C425.505 664.804 714.838 456.313 949.077 364.131L939.922 340.868C702.196 434.421 410.495 644.755 339.42 704.962L355.579 724.038ZM949.077 364.131C1210.57 261.225 1489.79 218.576 1648.68 203.443L1646.31 178.556C1486.21 193.804 1204.43 236.774 939.922 340.868L949.077 364.131ZM1648.68 203.443C1713.13 197.305 1790.16 201.611 1858.83 215.759C1928.15 230.039 1986.26 253.806 2015.42 284.597L2033.57 267.403C1998.86 230.761 1934.22 205.766 1863.88 191.273C1792.89 176.648 1713.36 172.17 1646.31 178.556L1648.68 203.443ZM2015.42 284.597C2044.59 315.383 2054.2 349.678 2050.32 390.224C2046.37 431.603 2028.37 479.317 2001.7 535.651L2024.3 546.349C2051.13 489.682 2070.82 438.613 2075.21 392.6C2079.69 345.754 2068.29 304.049 2033.57 267.403L2015.42 284.597ZM2001.7 535.651C1968.84 605.068 1907.14 675.557 1850.86 729.326C1822.82 756.103 1796.41 778.475 1776.04 794.215C1765.84 802.096 1757.28 808.224 1750.86 812.384C1747.64 814.474 1745.12 815.963 1743.3 816.912C1740.94 818.142 1741.07 817.758 1742.54 817.585L1745.46 842.414C1749.06 841.991 1752.62 840.248 1754.86 839.078C1757.64 837.628 1760.89 835.678 1764.46 833.359C1771.65 828.702 1780.8 822.133 1791.33 813.996C1812.41 797.7 1839.49 774.755 1868.12 747.404C1925.16 692.917 1989.47 619.906 2024.3 546.349L2001.7 535.651Z" fill="black"/>
<path d="M752.5 438.5V370.5L1017.5 261.5L1078.5 307" stroke="black" stroke-width="30" stroke-linejoin="bevel"/>
<path d="M2195 188H2259L2195 281H2259" stroke="black" stroke-width="20" stroke-linecap="round" stroke-linejoin="round"/>
<path d="M1073.08 1038.24C1073.09 1038.24 1073.08 1038.28 1073.06 1038.36C1073.07 1038.29 1073.08 1038.25 1073.08 1038.24ZM1057.34 1042.52C1063.67 1041.19 1068.49 1040.79 1071.73 1041.01C1069.99 1043.75 1066.81 1047.4 1061.99 1051.71C1051.89 1060.76 1036.27 1071.23 1017.54 1080.72C998.799 1090.21 981.118 1096.59 967.844 1099.38C961.513 1100.72 956.692 1101.12 953.448 1100.9C955.192 1098.16 958.371 1094.51 963.19 1090.19C973.297 1081.15 988.91 1070.68 1007.65 1061.19C1026.38 1051.7 1044.06 1045.31 1057.34 1042.52ZM950.424 1100.35C950.427 1100.35 950.465 1100.37 950.529 1100.41C950.453 1100.38 950.421 1100.36 950.424 1100.35ZM952.099 1103.66C952.095 1103.66 952.098 1103.63 952.119 1103.54C952.112 1103.62 952.102 1103.66 952.099 1103.66ZM1074.65 1041.5C1074.73 1041.53 1074.76 1041.55 1074.76 1041.55C1074.76 1041.55 1074.72 1041.54 1074.65 1041.5Z" fill="black"/>
<path d="M1073.08 1038.24C1073.09 1038.24 1073.08 1038.28 1073.06 1038.36C1073.07 1038.29 1073.08 1038.25 1073.08 1038.24ZM1057.34 1042.52C1063.67 1041.19 1068.49 1040.79 1071.73 1041.01C1069.99 1043.75 1066.81 1047.4 1061.99 1051.71C1051.89 1060.76 1036.27 1071.23 1017.54 1080.72C998.799 1090.21 981.118 1096.59 967.844 1099.38C961.513 1100.72 956.692 1101.12 953.448 1100.9C955.192 1098.16 958.371 1094.51 963.19 1090.19C973.297 1081.15 988.91 1070.68 1007.65 1061.19C1026.38 1051.7 1044.06 1045.31 1057.34 1042.52ZM950.424 1100.35C950.427 1100.35 950.465 1100.37 950.529 1100.41C950.453 1100.38 950.421 1100.36 950.424 1100.35ZM952.099 1103.66C952.095 1103.66 952.098 1103.63 952.119 1103.54C952.112 1103.62 952.102 1103.66 952.099 1103.66ZM1074.65 1041.5C1074.73 1041.53 1074.76 1041.55 1074.76 1041.55C1074.76 1041.55 1074.72 1041.54 1074.65 1041.5Z" fill="black"/>
<path d="M1073.08 1038.24C1073.09 1038.24 1073.08 1038.28 1073.06 1038.36C1073.07 1038.29 1073.08 1038.25 1073.08 1038.24ZM1057.34 1042.52C1063.67 1041.19 1068.49 1040.79 1071.73 1041.01C1069.99 1043.75 1066.81 1047.4 1061.99 1051.71C1051.89 1060.76 1036.27 1071.23 1017.54 1080.72C998.799 1090.21 981.118 1096.59 967.844 1099.38C961.513 1100.72 956.692 1101.12 953.448 1100.9C955.192 1098.16 958.371 1094.51 963.19 1090.19C973.297 1081.15 988.91 1070.68 1007.65 1061.19C1026.38 1051.7 1044.06 1045.31 1057.34 1042.52ZM950.424 1100.35C950.427 1100.35 950.465 1100.37 950.529 1100.41C950.453 1100.38 950.421 1100.36 950.424 1100.35ZM952.099 1103.66C952.095 1103.66 952.098 1103.63 952.119 1103.54C952.112 1103.62 952.102 1103.66 952.099 1103.66ZM1074.65 1041.5C1074.73 1041.53 1074.76 1041.55 1074.76 1041.55C1074.76 1041.55 1074.72 1041.54 1074.65 1041.5Z" stroke="black" stroke-width="20"/>
<path d="M1624.09 1067.79C1624.09 1067.79 1624.06 1067.81 1623.99 1067.84C1624.05 1067.8 1624.08 1067.79 1624.09 1067.79ZM1612.1 1058.8C1616.64 1062.66 1619.63 1065.95 1621.29 1068.44C1618.32 1068.79 1613.87 1068.64 1607.99 1067.69C1595.49 1065.67 1578.73 1060.39 1560.9 1052.14C1543.06 1043.89 1528.19 1034.55 1518.55 1026.34C1514.01 1022.47 1511.02 1019.18 1509.36 1016.69C1512.33 1016.35 1516.77 1016.49 1522.66 1017.44C1535.16 1019.47 1551.91 1024.75 1569.75 1032.99C1587.59 1041.24 1602.46 1050.58 1612.1 1058.8ZM1508.04 1014.14C1508.05 1014.14 1508.06 1014.18 1508.06 1014.25C1508.04 1014.17 1508.04 1014.14 1508.04 1014.14ZM1506.56 1017.34C1506.56 1017.34 1506.59 1017.32 1506.66 1017.29C1506.6 1017.33 1506.56 1017.35 1506.56 1017.34ZM1622.58 1070.88C1622.6 1070.96 1622.61 1071 1622.61 1071C1622.6 1070.99 1622.59 1070.96 1622.58 1070.88Z" fill="black"/>
<path d="M1624.09 1067.79C1624.09 1067.79 1624.06 1067.81 1623.99 1067.84C1624.05 1067.8 1624.08 1067.79 1624.09 1067.79ZM1612.1 1058.8C1616.64 1062.66 1619.63 1065.95 1621.29 1068.44C1618.32 1068.79 1613.87 1068.64 1607.99 1067.69C1595.49 1065.67 1578.73 1060.39 1560.9 1052.14C1543.06 1043.89 1528.19 1034.55 1518.55 1026.34C1514.01 1022.47 1511.02 1019.18 1509.36 1016.69C1512.33 1016.35 1516.77 1016.49 1522.66 1017.44C1535.16 1019.47 1551.91 1024.75 1569.75 1032.99C1587.59 1041.24 1602.46 1050.58 1612.1 1058.8ZM1508.04 1014.14C1508.05 1014.14 1508.06 1014.18 1508.06 1014.25C1508.04 1014.17 1508.04 1014.14 1508.04 1014.14ZM1506.56 1017.34C1506.56 1017.34 1506.59 1017.32 1506.66 1017.29C1506.6 1017.33 1506.56 1017.35 1506.56 1017.34ZM1622.58 1070.88C1622.6 1070.96 1622.61 1071 1622.61 1071C1622.6 1070.99 1622.59 1070.96 1622.58 1070.88Z" fill="black"/>
<path d="M1624.09 1067.79C1624.09 1067.79 1624.06 1067.81 1623.99 1067.84C1624.05 1067.8 1624.08 1067.79 1624.09 1067.79ZM1612.1 1058.8C1616.64 1062.66 1619.63 1065.95 1621.29 1068.44C1618.32 1068.79 1613.87 1068.64 1607.99 1067.69C1595.49 1065.67 1578.73 1060.39 1560.9 1052.14C1543.06 1043.89 1528.19 1034.55 1518.55 1026.34C1514.01 1022.47 1511.02 1019.18 1509.36 1016.69C1512.33 1016.35 1516.77 1016.49 1522.66 1017.44C1535.16 1019.47 1551.91 1024.75 1569.75 1032.99C1587.59 1041.24 1602.46 1050.58 1612.1 1058.8ZM1508.04 1014.14C1508.05 1014.14 1508.06 1014.18 1508.06 1014.25C1508.04 1014.17 1508.04 1014.14 1508.04 1014.14ZM1506.56 1017.34C1506.56 1017.34 1506.59 1017.32 1506.66 1017.29C1506.6 1017.33 1506.56 1017.35 1506.56 1017.34ZM1622.58 1070.88C1622.6 1070.96 1622.61 1071 1622.61 1071C1622.6 1070.99 1622.59 1070.96 1622.58 1070.88Z" stroke="black" stroke-width="20"/>
<mask id="path-22-inside-1_16_90" fill="white">
<ellipse cx="1337.26" cy="1062.32" rx="32.0232" ry="15.4772" transform="rotate(-1.52356 1337.26 1062.32)"/>
</mask>
<ellipse cx="1337.26" cy="1062.32" rx="32.0232" ry="15.4772" transform="rotate(-1.52356 1337.26 1062.32)" fill="black"/>
<ellipse cx="1337.26" cy="1062.32" rx="32.0232" ry="15.4772" transform="rotate(-1.52356 1337.26 1062.32)" fill="black"/>
<path d="M1349.28 1062C1349.18 1058.19 1350.79 1055.68 1351.52 1054.79C1352.15 1054.04 1352.26 1054.24 1351.01 1054.89C1348.51 1056.18 1343.64 1057.63 1337.14 1057.8L1338.2 1097.79C1349.38 1097.49 1360.43 1095.05 1369.37 1090.43C1376.92 1086.53 1389.7 1077.22 1389.27 1060.94L1349.28 1062ZM1337.14 1057.8C1330.64 1057.97 1325.7 1056.79 1323.14 1055.63C1321.85 1055.05 1321.95 1054.84 1322.62 1055.56C1323.4 1056.41 1325.14 1058.83 1325.24 1062.64L1285.26 1063.71C1285.69 1079.99 1298.94 1088.6 1306.7 1092.1C1315.87 1096.23 1327.03 1098.09 1338.2 1097.79L1337.14 1057.8ZM1325.24 1062.64C1325.34 1066.45 1323.74 1068.97 1323 1069.85C1322.37 1070.61 1322.26 1070.4 1323.51 1069.75C1326.01 1068.46 1330.88 1067.02 1337.38 1066.84L1336.32 1026.86C1325.14 1027.16 1314.09 1029.6 1305.16 1034.22C1297.6 1038.12 1284.82 1047.42 1285.26 1063.71L1325.24 1062.64ZM1337.38 1066.84C1343.88 1066.67 1348.82 1067.86 1351.38 1069.01C1352.67 1069.59 1352.57 1069.81 1351.9 1069.08C1351.12 1068.24 1349.38 1065.82 1349.28 1062L1389.27 1060.94C1388.83 1044.66 1375.58 1036.05 1367.83 1032.55C1358.66 1028.41 1347.5 1026.56 1336.32 1026.86L1337.38 1066.84Z" fill="black" mask="url(#path-22-inside-1_16_90)"/>
<path d="M788 869V741.5L888.5 803.5" stroke="black" stroke-width="15" stroke-linecap="round" stroke-linejoin="round"/>
<path d="M1592 769L1670.5 720L1691.5 820" stroke="black" stroke-width="15" stroke-linecap="round" stroke-linejoin="round"/>
<path d="M2052 725H2154L2052 846H2154" stroke="black" stroke-width="20" stroke-linecap="round" stroke-linejoin="round"/>
<path d="M1833 350H1919L1833 456H1919" stroke="black" stroke-width="20" stroke-linecap="round" stroke-linejoin="round"/>
</svg>
