<svg width="2450" height="2437" viewBox="0 0 2450 2437" fill="none" xmlns="http://www.w3.org/2000/svg">
<path d="M208 1260H2316" stroke="black" stroke-width="40" stroke-linecap="round" stroke-linejoin="round"/>
<path d="M448 1260V2174.5L594 2314H1954.5" stroke="black" stroke-width="40"/>
<path d="M2091.5 2174.5H2111.5C2111.5 2179.96 2109.27 2185.19 2105.32 2188.96L2091.5 2174.5ZM1945.5 2314L1959.32 2328.46L1953.52 2334H1945.5V2314ZM598 2334H578V2294H598V2334ZM2111.5 1260V2174.5H2071.5V1260H2111.5ZM2105.32 2188.96L1959.32 2328.46L1931.68 2299.54L2077.68 2160.04L2105.32 2188.96ZM1945.5 2334H598V2294H1945.5V2334Z" fill="black"/>
<path d="M445 1521H175V1554H445" stroke="black" stroke-width="35" stroke-linejoin="bevel"/>
<path d="M2092 1521H2362V1554H2092" stroke="black" stroke-width="35" stroke-linejoin="bevel"/>
<path d="M607.5 1247C618.788 1168.6 662.955 983.721 743 932" stroke="black" stroke-width="35" stroke-linejoin="bevel"/>
<path d="M736.5 948C729.333 855.833 718.354 700.916 736.5 689C736.5 689 782.5 634 961.5 779.5" stroke="black" stroke-width="35" stroke-linejoin="round"/>
<path d="M1420.5 903.5C1477.5 917.5 1593.71 953.331 1658.19 1031.65M1658.19 1031.65C1658.97 1032.59 1659.74 1033.54 1660.5 1034.5L1658.19 1031.65Z" stroke="black" stroke-width="20" stroke-linejoin="bevel"/>
<path d="M887.5 1092C896.5 1047.5 937.981 985.389 1065 933.5C1182.5 885.5 1280.5 863 1426 905.5" stroke="black" stroke-width="20" stroke-linejoin="bevel"/>
<path d="M891 1079.5C878.5 1106.5 891 1152.3 941 1159.5C1003.5 1168.5 1083 1129 1125.5 1105.5C1168 1082 1236 1037.5 1342.5 1037.5" stroke="black" stroke-width="20" stroke-linejoin="bevel"/>
<path d="M1337.5 1037.5C1373 1035.5 1440 1037.5 1527.5 1110" stroke="black" stroke-width="20" stroke-linejoin="bevel"/>
<path d="M1521 1106.5C1547.17 1118.5 1577.5 1143.98 1643.5 1125.5C1692 1111.92 1682.5 1065 1659 1032.5" stroke="black" stroke-width="20" stroke-linejoin="bevel"/>
<path d="M946.5 779.5C1041.67 739.833 1319.7 684.5 1550.5 740.5" stroke="black" stroke-width="35" stroke-linejoin="round"/>
<path d="M1533.5 742C1582 699.5 1688 638.6 1710 675C1737.5 720.5 1741.5 797 1769 906.5" stroke="black" stroke-width="35" stroke-linejoin="bevel"/>
<path d="M1763 894.5C1811.67 949.333 1916.6 1140 1919 1254" stroke="black" stroke-width="35" stroke-linejoin="bevel"/>
<path d="M555.742 1020.71C553.375 1014.23 546.198 1010.89 539.713 1013.26C533.228 1015.63 529.891 1022.8 532.258 1029.29L555.742 1020.71ZM532.258 1029.29C558.048 1099.93 668.303 1241.63 904.696 1266.43L907.304 1241.57C680.519 1217.78 578.294 1082.49 555.742 1020.71L532.258 1029.29Z" fill="black"/>
<path d="M1901.95 539.933C1901.36 533.055 1895.31 527.956 1888.43 528.546C1881.55 529.135 1876.46 535.189 1877.05 542.067L1901.95 539.933ZM100 1053.5L88.0528 1057.18L88.0528 1057.18L100 1053.5ZM944.5 352.5L949.078 364.131L944.5 352.5ZM1647.5 191L1646.31 178.556L1647.5 191ZM2024.5 276L2015.43 284.597L2024.5 276ZM2013 541L2024.3 546.349L2013 541ZM1877.05 542.067C1885.08 635.836 1899.49 782.448 1886.7 920.781C1873.83 1059.98 1833.83 1185.74 1737.59 1243.27L1750.41 1264.73C1857.88 1200.49 1898.64 1063.21 1911.59 923.082C1924.63 782.09 1909.94 633.09 1901.95 539.933L1877.05 542.067ZM625.562 1121.08C534.461 1131.63 414.905 1147.21 312.573 1142.51C261.405 1140.17 215.611 1132.78 180.293 1117.78C145.225 1102.88 121.541 1081 111.947 1049.82L88.0528 1057.18C100.459 1097.5 130.984 1123.99 170.52 1140.79C209.806 1157.47 259.012 1165.08 311.427 1167.49C416.261 1172.29 538.206 1156.37 628.438 1145.92L625.562 1121.08ZM111.947 1049.82C105.256 1028.08 110.64 1001.09 126.253 970.155C141.73 939.492 166.271 906.934 194.502 875.235C250.926 811.879 320.2 754.007 355.58 724.038L339.42 704.962C304.3 734.713 233.63 793.71 175.832 858.609C146.952 891.037 120.812 925.453 103.935 958.89C87.194 992.057 78.5502 1026.29 88.0528 1057.18L111.947 1049.82ZM355.58 724.038C425.505 664.804 714.838 456.313 949.078 364.131L939.923 340.868C702.197 434.422 410.495 644.755 339.42 704.962L355.58 724.038ZM949.078 364.131C1210.57 261.225 1489.79 218.576 1648.69 203.443L1646.31 178.556C1486.21 193.804 1204.43 236.774 939.923 340.868L949.078 364.131ZM1648.69 203.443C1713.13 197.305 1790.16 201.611 1858.83 215.759C1928.15 230.039 1986.26 253.807 2015.43 284.597L2033.57 267.403C1998.86 230.761 1934.22 205.766 1863.88 191.273C1792.89 176.648 1713.36 172.17 1646.31 178.556L1648.69 203.443ZM2015.43 284.597C2044.59 315.383 2054.2 349.678 2050.33 390.224C2046.37 431.603 2028.37 479.317 2001.7 535.651L2024.3 546.349C2051.13 489.682 2070.82 438.613 2075.21 392.601C2079.69 345.754 2068.29 304.049 2033.57 267.403L2015.43 284.597ZM2001.7 535.651C1968.84 605.068 1907.14 675.557 1850.86 729.326C1822.83 756.103 1796.41 778.476 1776.04 794.215C1765.84 802.096 1757.28 808.224 1750.86 812.384C1747.64 814.474 1745.12 815.963 1743.3 816.912C1740.94 818.142 1741.07 817.759 1742.54 817.585L1745.46 842.414C1749.06 841.991 1752.62 840.248 1754.86 839.079C1757.64 837.628 1760.89 835.679 1764.46 833.36C1771.65 828.702 1780.8 822.133 1791.33 813.996C1812.41 797.7 1839.49 774.755 1868.12 747.404C1925.16 692.917 1989.47 619.906 2024.3 546.349L2001.7 535.651Z" fill="black"/>
<path d="M752.5 438.5V370.5L1017.5 261.5L1078.5 307" stroke="black" stroke-width="30" stroke-linejoin="bevel"/>
<circle cx="2100" cy="805" r="75" stroke="black" stroke-width="20"/>
<path d="M2306 234C2306 265.41 2280.33 291 2248.5 291C2216.67 291 2191 265.41 2191 234C2191 202.59 2216.67 177 2248.5 177C2280.33 177 2306 202.59 2306 234Z" stroke="black" stroke-width="20"/>
<path d="M1961 426C1961 461.836 1931.74 491 1895.5 491C1859.26 491 1830 461.836 1830 426C1830 390.164 1859.26 361 1895.5 361C1931.74 361 1961 390.164 1961 426Z" stroke="black" stroke-width="20"/>
<path d="M1124.86 1019.16C1129.22 1027.76 1128.41 1039.43 1121 1052.27C1113.65 1065.02 1100.34 1077.7 1082.54 1086.72C1064.73 1095.73 1046.63 1098.95 1032 1097.34C1017.27 1095.71 1007.39 1089.45 1003.03 1080.84C998.672 1072.24 999.48 1060.57 1006.88 1047.73C1014.24 1034.98 1027.55 1022.3 1045.35 1013.28C1063.16 1004.27 1081.26 1001.05 1095.88 1002.66C1110.62 1004.29 1120.5 1010.55 1124.86 1019.16Z" fill="black"/>
<path d="M1124.86 1019.16C1129.22 1027.76 1128.41 1039.43 1121 1052.27C1113.65 1065.02 1100.34 1077.7 1082.54 1086.72C1064.73 1095.73 1046.63 1098.95 1032 1097.34C1017.27 1095.71 1007.39 1089.45 1003.03 1080.84C998.672 1072.24 999.48 1060.57 1006.88 1047.73C1014.24 1034.98 1027.55 1022.3 1045.35 1013.28C1063.16 1004.27 1081.26 1001.05 1095.88 1002.66C1110.62 1004.29 1120.5 1010.55 1124.86 1019.16Z" fill="black"/>
<path d="M1124.86 1019.16C1129.22 1027.76 1128.41 1039.43 1121 1052.27C1113.65 1065.02 1100.34 1077.7 1082.54 1086.72C1064.73 1095.73 1046.63 1098.95 1032 1097.34C1017.27 1095.71 1007.39 1089.45 1003.03 1080.84C998.672 1072.24 999.48 1060.57 1006.88 1047.73C1014.24 1034.98 1027.55 1022.3 1045.35 1013.28C1063.16 1004.27 1081.26 1001.05 1095.88 1002.66C1110.62 1004.29 1120.5 1010.55 1124.86 1019.16Z" stroke="black" stroke-width="20"/>
<path d="M1608.82 1069.14C1604.28 1078.97 1594.36 1086.14 1580.5 1088.91C1566.64 1091.68 1549.6 1089.81 1532.9 1082.09C1516.19 1074.36 1503.73 1062.59 1496.87 1050.24C1490 1037.89 1489.03 1025.69 1493.57 1015.86C1498.12 1006.03 1508.04 998.861 1521.9 996.091C1535.75 993.323 1552.8 995.193 1569.5 1002.91C1586.2 1010.64 1598.67 1022.41 1605.53 1034.76C1612.4 1047.11 1613.37 1059.31 1608.82 1069.14Z" fill="black"/>
<path d="M1608.82 1069.14C1604.28 1078.97 1594.36 1086.14 1580.5 1088.91C1566.64 1091.68 1549.6 1089.81 1532.9 1082.09C1516.19 1074.36 1503.73 1062.59 1496.87 1050.24C1490 1037.89 1489.03 1025.69 1493.57 1015.86C1498.12 1006.03 1508.04 998.861 1521.9 996.091C1535.75 993.323 1552.8 995.193 1569.5 1002.91C1586.2 1010.64 1598.67 1022.41 1605.53 1034.76C1612.4 1047.11 1613.37 1059.31 1608.82 1069.14Z" fill="black"/>
<path d="M1608.82 1069.14C1604.28 1078.97 1594.36 1086.14 1580.5 1088.91C1566.64 1091.68 1549.6 1089.81 1532.9 1082.09C1516.19 1074.36 1503.73 1062.59 1496.87 1050.24C1490 1037.89 1489.03 1025.69 1493.57 1015.86C1498.12 1006.03 1508.04 998.861 1521.9 996.091C1535.75 993.323 1552.8 995.193 1569.5 1002.91C1586.2 1010.64 1598.67 1022.41 1605.53 1034.76C1612.4 1047.11 1613.37 1059.31 1608.82 1069.14Z" stroke="black" stroke-width="20"/>
<mask id="path-24-inside-1_7_46" fill="white">
<ellipse cx="1337.26" cy="1062.32" rx="32.0232" ry="15.4772" transform="rotate(-1.52356 1337.26 1062.32)"/>
</mask>
<ellipse cx="1337.26" cy="1062.32" rx="32.0232" ry="15.4772" transform="rotate(-1.52356 1337.26 1062.32)" fill="black"/>
<ellipse cx="1337.26" cy="1062.32" rx="32.0232" ry="15.4772" transform="rotate(-1.52356 1337.26 1062.32)" fill="black"/>
<path d="M1349.28 1062C1349.18 1058.19 1350.79 1055.68 1351.52 1054.79C1352.15 1054.04 1352.26 1054.24 1351.01 1054.89C1348.51 1056.18 1343.64 1057.63 1337.14 1057.8L1338.2 1097.79C1349.38 1097.49 1360.43 1095.05 1369.37 1090.43C1376.93 1086.53 1389.7 1077.22 1389.27 1060.94L1349.28 1062ZM1337.14 1057.8C1330.64 1057.97 1325.7 1056.79 1323.14 1055.63C1321.85 1055.05 1321.95 1054.84 1322.62 1055.56C1323.4 1056.41 1325.14 1058.83 1325.24 1062.64L1285.26 1063.71C1285.69 1079.99 1298.94 1088.6 1306.7 1092.1C1315.87 1096.23 1327.03 1098.09 1338.2 1097.79L1337.14 1057.8ZM1325.24 1062.64C1325.34 1066.45 1323.74 1068.97 1323 1069.85C1322.37 1070.61 1322.26 1070.4 1323.51 1069.75C1326.01 1068.46 1330.88 1067.02 1337.38 1066.84L1336.32 1026.86C1325.14 1027.16 1314.09 1029.6 1305.16 1034.22C1297.6 1038.12 1284.82 1047.42 1285.26 1063.71L1325.24 1062.64ZM1337.38 1066.84C1343.88 1066.67 1348.82 1067.86 1351.39 1069.01C1352.67 1069.59 1352.57 1069.81 1351.9 1069.08C1351.12 1068.24 1349.38 1065.82 1349.28 1062L1389.27 1060.94C1388.83 1044.66 1375.58 1036.05 1367.83 1032.55C1358.66 1028.41 1347.5 1026.56 1336.32 1026.86L1337.38 1066.84Z" fill="black" mask="url(#path-24-inside-1_7_46)"/>
<path d="M1277 1616L1285.5 1621.27C1288.28 1616.8 1287.1 1610.93 1282.82 1607.86C1278.53 1604.8 1272.6 1605.59 1269.26 1609.67L1277 1616ZM1267 1916.5L1259.34 1922.93L1267 1916.5ZM1209.5 2069L1211.14 2059.14L1209.5 2069ZM1091.5 2189.5L1082.74 2194.33L1082.74 2194.33L1091.5 2189.5ZM1391.5 2291.5L1395.36 2300.72L1391.5 2291.5ZM1480 2033L1470.47 2036.03L1480 2033ZM1277 1823.5L1270.04 1830.68L1277 1823.5ZM1269.26 1609.67C1236.06 1650.25 1200.98 1691.06 1191.04 1740.65C1180.86 1791.41 1197.18 1848.93 1259.34 1922.93L1274.66 1910.07C1214.57 1838.53 1202.14 1787.05 1210.65 1744.58C1219.4 1700.92 1250.44 1664.25 1284.74 1622.33L1269.26 1609.67ZM1259.34 1922.93C1283.14 1951.26 1287.09 1988.72 1276.66 2017.46C1266.33 2045.95 1242.78 2064.41 1211.14 2059.14L1207.86 2078.86C1251.22 2086.09 1282.67 2059.55 1295.46 2024.29C1308.16 1989.28 1303.36 1944.24 1274.66 1910.07L1259.34 1922.93ZM1211.14 2059.14C1186.85 2055.09 1165.06 2034.69 1151.93 2005.55C1138.89 1976.61 1135.39 1941 1145.97 1909.7L1127.03 1903.3C1114.61 1940 1118.86 1980.85 1133.7 2013.76C1148.44 2046.48 1174.65 2073.33 1207.86 2078.86L1211.14 2059.14ZM1145.97 1909.7C1147.5 1905.18 1148.57 1901.03 1148.83 1897.53C1148.96 1895.82 1148.95 1893.56 1148.26 1891.26C1147.53 1888.81 1145.71 1885.46 1141.76 1883.71C1138.09 1882.08 1134.67 1882.8 1132.75 1883.46C1130.75 1884.15 1129.04 1885.22 1127.74 1886.18C1125.08 1888.14 1122.36 1890.9 1119.71 1894C1109.08 1906.42 1094.33 1930.58 1081.73 1961.28C1056.6 2022.51 1038.4 2113.85 1082.74 2194.33L1100.26 2184.67C1060.23 2112.01 1076.03 2027.85 1100.24 1968.87C1112.31 1939.45 1126.07 1917.33 1134.91 1907C1137.12 1904.4 1138.7 1902.95 1139.58 1902.3C1140.04 1901.96 1139.91 1902.15 1139.27 1902.37C1138.71 1902.56 1136.43 1903.23 1133.66 1902C1130.61 1900.65 1129.45 1898.14 1129.11 1897C1128.81 1896 1128.93 1895.51 1128.89 1896.04C1128.81 1897.04 1128.37 1899.32 1127.03 1903.3L1145.97 1909.7ZM1082.74 2194.33C1120.5 2262.87 1170.66 2295.5 1208.06 2311.22C1226.72 2319.06 1242.11 2322.66 1251.03 2324.46C1253.22 2324.9 1255.08 2325.24 1256.31 2325.48C1258.07 2325.82 1257.89 2325.83 1257.31 2325.62C1257.29 2325.61 1255.87 2325.14 1254.45 2323.91C1253.71 2323.27 1251.93 2321.55 1251.26 2318.59C1250.46 2315.05 1251.73 2312.03 1253.19 2310.19C1254.41 2308.67 1255.77 2307.91 1256.28 2307.63C1256.92 2307.3 1257.45 2307.11 1257.72 2307.03C1258.24 2306.85 1258.62 2306.79 1258.64 2306.78C1258.72 2306.77 1258.6 2306.79 1258.06 2306.85C1257.58 2306.9 1256.94 2306.96 1256.09 2307.04L1257.91 2326.96C1259.44 2326.82 1261.13 2326.66 1262.31 2326.44C1262.64 2326.38 1263.26 2326.26 1263.96 2326.03C1264.31 2325.91 1264.91 2325.69 1265.61 2325.33C1266.18 2325.03 1267.57 2324.24 1268.82 2322.68C1270.31 2320.82 1271.58 2317.77 1270.77 2314.19C1270.1 2311.2 1268.29 2309.44 1267.52 2308.78C1266.02 2307.48 1264.47 2306.94 1264.25 2306.86C1262.87 2306.35 1260.94 2306 1260.08 2305.84C1258.69 2305.57 1257.05 2305.27 1254.98 2304.85C1246.86 2303.22 1232.85 2299.94 1215.81 2292.78C1181.84 2278.5 1135.5 2248.63 1100.26 2184.67L1082.74 2194.33ZM1256.09 2307.04C1254.15 2307.22 1252.37 2307.46 1250.82 2307.79C1250.05 2307.95 1249.19 2308.18 1248.32 2308.49C1247.58 2308.75 1246.19 2309.3 1244.81 2310.38C1243.58 2311.34 1240.41 2314.33 1240.77 2319.36C1241.11 2323.99 1244.24 2326.45 1245.21 2327.14C1247.35 2328.67 1249.8 2329.23 1250.83 2329.46C1256.13 2330.63 1266.01 2331.02 1278.8 2330.17C1304.96 2328.41 1346.55 2321.17 1395.36 2300.72L1387.64 2282.28C1340.95 2301.83 1301.54 2308.59 1277.45 2310.21C1265.12 2311.04 1257.56 2310.46 1255.14 2309.93C1254.24 2309.73 1255.37 2309.82 1256.83 2310.86C1257.45 2311.31 1260.4 2313.53 1260.72 2317.91C1261.07 2322.69 1258.04 2325.43 1257.12 2326.15C1256.05 2326.98 1255.15 2327.29 1255.06 2327.32C1254.84 2327.4 1254.8 2327.39 1255.04 2327.34C1255.49 2327.24 1256.41 2327.1 1257.91 2326.96L1256.09 2307.04ZM1395.36 2300.72C1408.99 2295.02 1423.86 2282.47 1437.71 2265.99C1451.73 2249.32 1465.36 2227.86 1476.25 2203.31C1497.99 2154.29 1509.22 2091.92 1489.53 2029.97L1470.47 2036.03C1488.28 2092.08 1478.32 2149.3 1457.97 2195.2C1447.8 2218.11 1435.16 2237.95 1422.4 2253.12C1409.48 2268.48 1397.07 2278.33 1387.64 2282.28L1395.36 2300.72ZM1489.53 2029.97C1475.12 1984.61 1447.04 1954.39 1411.35 1924.07C1375.28 1893.43 1332.46 1863.38 1283.96 1816.32L1270.04 1830.68C1319.01 1878.2 1364.12 1910.19 1398.4 1939.31C1433.05 1968.74 1457.74 1995.98 1470.47 2036.03L1489.53 2029.97ZM1283.96 1816.32C1253.07 1786.35 1246.34 1749.41 1250.94 1713.65C1255.57 1677.6 1271.72 1643.47 1285.5 1621.27L1268.5 1610.73C1253.83 1634.36 1236.23 1671.24 1231.1 1711.1C1225.94 1751.26 1233.43 1795.15 1270.04 1830.68L1283.96 1816.32Z" fill="black"/>
<path d="M788 869V741.5L888.5 803.5" stroke="black" stroke-width="15" stroke-linecap="round" stroke-linejoin="round"/>
<path d="M1592 769L1670.5 720L1691.5 820" stroke="black" stroke-width="15" stroke-linecap="round" stroke-linejoin="round"/>
</svg>
